:SAMPLES-PER-SECOND 30
:FULLY-SPECIFIED
:DEGREES
129
root  26.5001 18.1728 2.74878 114.68 85.7673 66.4914
RightUpLeg  -18.491 8.36607 4.4022
RightLeg  75.4137 13.9219 13.1562
RightFoot  9.75167 0.326071 -1.62728
RightToes  1.86264e-009 -3.18055e-015 8.94531e-016
Spine  45.0402 -4.16035 -2.72297
Spine1  -12.9799 -4.51362 -15.5439
HEad  -58.0306 1.67992 17.6837
LeftShoulder1  0 -2.69403e-036 -1.28585e-037
LeftArm  36.0215 -4.03243 -74.2601
LeftForeArm  0.747368 -40.8992 26.7211
LeftHand  -2.95997 -0.434766 38.0215
RightShoulder  -2.48481e-017 0 -8.08114e-019
RightArm  -7.36735 37.1265 95.434
RightForeArm  13.5982 3.15193 -4.5469
RightHand  7.50827 -20.193 -41.0106
LeftUpLeg  -61.7234 -7.06965 1.04393
LeftLeg  115.196 -9.0345 -9.88546
LeftFoot  24.7989 -0.236547 0.900157
LeftToes  -3.27418e-010 -1.10613e-010 -1.08532e-012
130
root  27.4319 18.0886 2.70822 133.369 81.1306 83.5513
RightUpLeg  -17.6253 4.34553 0.711829
RightLeg  72.1767 14.3335 12.1583
RightFoot  10.6123 0.302486 -1.45739
RightToes  1.86264e-009 -3.18055e-015 8.94531e-016
Spine  44.1489 -4.69573 -6.5713
Spine1  -13.2017 -6.92862 -10.7483
HEad  -58.6368 3.12099 16.9999
LeftShoulder1  0 -2.69403e-036 -1.28585e-037
LeftArm  29.4525 -4.47226 -73.8476
LeftForeArm  1.65049 -45.7115 29.9564
LeftHand  -2.93865 -0.397095 37.9955
RightShoulder  -2.48481e-017 0 -8.08114e-019
RightArm  -7.58949 35.5075 97.199
RightForeArm  16.8074 3.82181 -3.546
RightHand  7.78217 -20.4485 -41.9315
LeftUpLeg  -59.4651 -10.4539 -3.01541
LeftLeg  111.966 -9.97143 -8.89538
LeftFoot  23.6754 0.228849 -0.467076
LeftToes  -3.27418e-010 -1.10613e-010 -1.08532e-012
131
root  28.3081 17.9923 2.59638 136.471 77.4716 85.739
RightUpLeg  -16.2593 1.0176 -2.19855
RightLeg  69.3754 15.0795 12.5197
RightFoot  13.0346 0.311801 -1.35562
RightToes  1.86264e-009 -3.18055e-015 8.94531e-016
Spine  43.6762 -5.53329 -8.64098
Spine1  -13.4795 -8.78375 -7.66291
HEad  -58.8375 4.08979 16.0759
LeftShoulder1  0 -2.69403e-036 -1.28585e-037
LeftArm  25.5314 -8.40366 -74.3359
LeftForeArm  1.44381 -47.6116 31.3615
LeftHand  -2.81177 -0.27075 37.232
RightShoulder  -2.48481e-017 0 -8.08114e-019
RightArm  -8.33787 33.676 98.0754
RightForeArm  19.6701 4.50974 -2.39184
RightHand  8.12303 -20.7599 -43.0442
LeftUpLeg  -56.7741 -13.634 -5.97088
LeftLeg  108.948 -10.4048 -8.8314
LeftFoot  23.3505 0.44674 -1.12511
LeftToes  -3.27418e-010 -1.10613e-010 -1.08532e-012
132
root  29.0617 17.9592 2.42403 137.651 75.892 86.4742
RightUpLeg  -15.3866 -0.491012 -3.71315
RightLeg  67.4842 15.8601 13.3723
RightFoot  16.8147 0.333644 -1.27304
RightToes  1.86264e-009 -3.18055e-015 8.94531e-016
Spine  43.7114 -6.21452 -9.15252
Spine1  -14.3863 -9.79284 -6.03556
HEad  -58.6104 4.7941 14.9821
LeftShoulder1  0 -2.69403e-036 -1.28585e-037
LeftArm  22.5145 -14.2521 -74.7776
LeftForeArm  0.762291 -47.8503 31.4937
LeftHand  -2.60374 -0.0855515 35.7971
RightShoulder  -2.48481e-017 0 -8.08114e-019
RightArm  -8.68907 31.9112 98.9721
RightForeArm  21.9916 4.75852 -1.37573
RightHand  8.4111 -20.9803 -44.0818
LeftUpLeg  -54.6149 -15.5927 -7.37569
LeftLeg  106.644 -10.4349 -9.69512
LeftFoot  23.807 0.365631 -0.868403
LeftToes  -3.27418e-010 -1.10613e-010 -1.08532e-012
133
root  29.6932 18.0635 2.24968 137.182 76.3679 85.7916
RightUpLeg  -15.8801 -0.24165 -3.79344
RightLeg  67.2629 15.8208 13.1763
RightFoot  18.6333 0.266809 -0.950569
RightToes  1.86264e-009 -3.18055e-015 8.94531e-016
Spine  44.2248 -6.23828 -9.0847
Spine1  -15.4674 -9.90293 -4.70367
HEad  -58.6661 5.53996 14.1253
LeftShoulder1  0 -2.69403e-036 -1.28585e-037
LeftArm  19.5043 -21.5564 -74.6002
LeftForeArm  0.00381477 -46.766 30.6114
LeftHand  -2.43242 0.0804856 34.6387
RightShoulder  -2.48481e-017 0 -8.08114e-019
RightArm  -8.34187 30.6593 100.315
RightForeArm  23.9557 4.46205 -0.750276
RightHand  8.59303 -21.0978 -44.7867
LeftUpLeg  -53.189 -15.8333 -7.33586
LeftLeg  105.053 -10.3308 -10.891
LeftFoot  24.1627 0.408633 -0.980814
LeftToes  -3.27418e-010 -1.10613e-010 -1.08532e-012
134
root  30.2567 18.2882 2.09761 135.777 78.4058 84.3378
RightUpLeg  -17.8821 0.775169 -2.6976
RightLeg  69.3834 14.6571 11.4194
RightFoot  15.7242 0.261563 -1.03291
RightToes  1.86264e-009 -3.18055e-015 8.94531e-016
Spine  44.9641 -5.81861 -8.42442
Spine1  -16.0727 -9.31683 -3.62007
HEad  -59.3098 6.44294 13.49
LeftShoulder1  0 -2.69403e-036 -1.28585e-037
LeftArm  16.8992 -30.4578 -73.5132
LeftForeArm  -0.312091 -43.3412 28.1874
LeftHand  -2.32068 0.201422 33.9153
RightShoulder  -2.48481e-017 0 -8.08114e-019
RightArm  -7.64507 30.1287 101.847
RightForeArm  25.4867 3.87274 -0.434818
RightHand  8.76013 -21.2311 -45.3351
LeftUpLeg  -51.9185 -14.5742 -6.1379
LeftLeg  103.576 -10.3545 -11.7774
LeftFoot  24.1494 0.652731 -1.70039
LeftToes  -3.27418e-010 -1.10613e-010 -1.08532e-012
135
root  30.7945 18.5687 1.94936 134.643 81.3381 83.1901
RightUpLeg  -21.1599 1.67343 -0.795985
RightLeg  73.7602 13.0693 8.86917
RightFoot  9.85721 0.423936 -2.15148
RightToes  1.86264e-009 -3.18055e-015 8.94531e-016
Spine  45.7709 -5.54322 -6.81035
Spine1  -16.5066 -8.45751 -3.14995
HEad  -60.1064 7.35188 12.5772
LeftShoulder1  0 -2.69403e-036 -1.28585e-037
LeftArm  15.9139 -39.588 -72.2245
LeftForeArm  -0.999371 -36.9803 24.4603
LeftHand  -2.25299 0.236386 33.2352
RightShoulder  -2.48481e-017 0 -8.08114e-019
RightArm  -6.86103 29.8548 103.327
RightForeArm  26.478 3.31184 -0.192264
RightHand  8.96285 -21.4074 -45.9355
LeftUpLeg  -50.4431 -12.7073 -4.15476
LeftLeg  101.683 -10.6097 -12.1557
LeftFoot  24.2251 0.825114 -2.20093
LeftToes  -3.27418e-010 -1.10613e-010 -1.08532e-012
136
root  31.3223 18.8682 1.78947 135.758 84.6273 84.1063
RightUpLeg  -25.6122 2.4484 1.5262
RightLeg  79.6502 11.8154 6.3704
RightFoot  5.50905 0.569405 -3.46624
RightToes  1.86264e-009 -3.18055e-015 8.94531e-016
Spine  46.6903 -5.49795 -4.61465
Spine1  -17.508 -7.56003 -2.96709
HEad  -60.6229 7.95905 11.2375
LeftShoulder1  0 -2.69403e-036 -1.28585e-037
LeftArm  17.523 -47.8615 -71.1999
LeftForeArm  -3.9598 -28.8373 20.8461
LeftHand  -2.26241 0.127393 32.7207
RightShoulder  -2.48481e-017 0 -8.08114e-019
RightArm  -6.17417 29.2703 104.743
RightForeArm  27.3897 3.00739 7.21994e-005
RightHand  9.13315 -21.5357 -46.4922
LeftUpLeg  -48.9757 -10.9817 -1.79168
LeftLeg  99.4352 -10.9953 -12.2818
LeftFoot  24.4615 0.830712 -2.20078
LeftToes  -3.27418e-010 -1.10613e-010 -1.08532e-012
137
root  31.8438 19.1595 1.62818 113.495 87.7775 61.4243
RightUpLeg  -31.1402 3.55323 3.79093
RightLeg  86.479 11.1058 4.63569
RightFoot  4.64516 0.62108 -3.97233
RightToes  1.86264e-009 -3.18055e-015 8.94531e-016
Spine  47.6977 -5.25279 -2.77355
Spine1  -19.0488 -6.56685 -2.56292
HEad  -60.9123 8.21294 9.88399
LeftShoulder1  0 -2.69403e-036 -1.28585e-037
LeftArm  11.1484 -54.2191 -69.4806
LeftForeArm  0.351981 -21.6675 14.893
LeftHand  -2.26615 0.0214268 32.1837
RightShoulder  -2.48481e-017 0 -8.08114e-019
RightArm  -5.72172 28.2905 106.066
RightForeArm  28.7347 2.97989 0.0667715
RightHand  9.24246 -21.5921 -46.9282
LeftUpLeg  -47.7232 -9.41028 0.417835
LeftLeg  97.281 -11.3606 -12.4825
LeftFoot  24.5104 0.768837 -2.01666
LeftToes  -3.27418e-010 -1.10613e-010 -1.08532e-012
138
root  32.3539 19.3764 1.47979 -49.3977 89.3406 -101.78
RightUpLeg  -37.2204 4.7963 5.5868
RightLeg  94.0446 10.6444 4.38335
RightFoot  5.26996 0.747111 -4.60495
RightToes  1.86264e-009 -3.18055e-015 8.94531e-016
Spine  48.6749 -4.70834 -1.68475
Spine1  -20.3537 -5.52341 -2.04088
HEad  -61.2896 8.36869 8.90328
LeftShoulder1  0 -2.69403e-036 -1.28585e-037
LeftArm  -1.29124 -58.9158 -67.0903
LeftForeArm  9.02479 -15.7802 9.02134
LeftHand  -2.03172 0.205424 30.1134
RightShoulder  -2.48481e-017 0 -8.08114e-019
RightArm  -5.43129 27.3377 107.062
RightForeArm  30.2736 3.0142 0.208469
RightHand  9.36569 -21.662 -47.3922
LeftUpLeg  -46.394 -7.90355 1.99557
LeftLeg  95.4546 -11.67 -12.7428
LeftFoot  24.4801 0.627906 -1.60844
LeftToes  -3.27418e-010 -1.10613e-010 -1.08532e-012
139
root  32.8739 19.4741 1.34326 -18.6886 87.4266 -70.9259
RightUpLeg  -43.259 5.25859 6.82914
RightLeg  101.95 9.94603 5.3836
RightFoot  4.77781 0.997191 -6.35784
RightToes  1.86264e-009 -3.18055e-015 8.94531e-016
Spine  49.5419 -4.32565 -0.913969
Spine1  -20.8666 -4.7436 -1.54732
HEad  -61.8498 8.6542 8.22453
LeftShoulder1  0 -2.69403e-036 -1.28585e-037
LeftArm  -5.23303 -62.1644 -66.1983
LeftForeArm  8.84338 -10.6802 7.10351
LeftHand  -1.52187 0.7261 25.6875
RightShoulder  -2.48481e-017 0 -8.08114e-019
RightArm  -5.18935 26.699 107.459
RightForeArm  31.5014 2.96855 0.628412
RightHand  9.53769 -21.7859 -47.9428
LeftUpLeg  -44.5698 -6.98075 2.84394
LeftLeg  93.7556 -11.9815 -12.7941
LeftFoot  24.6443 0.491071 -1.20268
LeftToes  -3.27418e-010 -1.10613e-010 -1.08532e-012
140
root  33.4437 19.4859 1.20968 -35.4823 87.0073 -87.1179
RightUpLeg  -49.201 4.4021 7.65744
RightLeg  109.451 8.97127 6.42859
RightFoot  2.49876 1.04491 -7.5951
RightToes  1.86264e-009 -3.18055e-015 8.94531e-016
Spine  50.2076 -4.44745 0.00654321
Spine1  -20.6089 -4.43876 -0.797056
HEad  -62.345 9.04198 7.5197
LeftShoulder1  0 -2.69403e-036 -1.28585e-037
LeftArm  -3.64795 -63.7546 -67.8495
LeftForeArm  5.78449 -6.90073 6.16939
LeftHand  -1.07382 1.20878 21.5208
RightShoulder  -2.48481e-017 0 -8.08114e-019
RightArm  -5.14712 26.0903 107.172
RightForeArm  32.5155 3.03302 1.10775
RightHand  9.70213 -21.9101 -48.4393
LeftUpLeg  -42.2034 -7.28203 3.18069
LeftLeg  91.9042 -12.3269 -12.6907
LeftFoot  24.8265 0.527384 -1.29904
LeftToes  -3.27418e-010 -1.10613e-010 -1.08532e-012
141
root  34.0617 19.4469 1.07784 -54.9739 87.4436 -105.638
RightUpLeg  -55.0696 2.58269 8.14497
RightLeg  115.988 7.94016 7.0484
RightFoot  -0.867587 0.823434 -7.52756
RightToes  1.86264e-009 -3.18055e-015 8.94531e-016
Spine  50.7233 -4.96288 0.992833
Spine1  -19.9319 -4.53501 0.210601
HEad  -62.5208 9.31448 6.69374
LeftShoulder1  0 -2.69403e-036 -1.28585e-037
LeftArm  -1.66132 -63.5421 -71.1051
LeftForeArm  5.72229 -4.40818 5.33045
LeftHand  -1.03907 1.31196 21.5101
RightShoulder  -2.48481e-017 0 -8.08114e-019
RightArm  -5.52653 25.145 106.358
RightForeArm  33.7352 3.3564 1.4418
RightHand  9.84346 -22.0104 -48.8785
LeftUpLeg  -39.3584 -8.78953 3.15952
LeftLeg  89.9015 -12.6952 -12.8946
LeftFoot  24.8343 0.708876 -1.82302
LeftToes  -3.27418e-010 -1.10613e-010 -1.08532e-012
